<mxfile host="app.diagrams.net" agent="Mozilla/5.0 (Windows NT 10.0; Win64; x64) AppleWebKit/537.36 (KHTML, like Gecko) Chrome/128.0.0.0 Safari/537.36 OPR/114.0.0.0" version="24.9.2">
  <diagram name="Page-1" id="fMQpedHjQt1hS0T5mJ5o">
    <mxGraphModel grid="1" page="1" gridSize="10" guides="1" tooltips="1" connect="1" arrows="1" fold="1" pageScale="1" pageWidth="850" pageHeight="1100" math="0" shadow="0">
      <root>
        <mxCell id="0" />
        <mxCell id="1" parent="0" />
        <mxCell id="px1rrTBDFM3gFnMYWkGp-1" value="User" style="swimlane;fontStyle=0;childLayout=stackLayout;horizontal=1;startSize=30;horizontalStack=0;resizeParent=1;resizeParentMax=0;resizeLast=0;collapsible=1;marginBottom=0;whiteSpace=wrap;html=1;" vertex="1" parent="1">
          <mxGeometry x="190" y="422" width="140" height="210" as="geometry" />
        </mxCell>
        <mxCell id="px1rrTBDFM3gFnMYWkGp-10" value="user_id" style="text;strokeColor=none;fillColor=none;align=left;verticalAlign=middle;spacingLeft=4;spacingRight=4;overflow=hidden;points=[[0,0.5],[1,0.5]];portConstraint=eastwest;rotatable=0;whiteSpace=wrap;html=1;" vertex="1" parent="px1rrTBDFM3gFnMYWkGp-1">
          <mxGeometry y="30" width="140" height="30" as="geometry" />
        </mxCell>
        <mxCell id="px1rrTBDFM3gFnMYWkGp-2" value="name" style="text;strokeColor=none;fillColor=none;align=left;verticalAlign=middle;spacingLeft=4;spacingRight=4;overflow=hidden;points=[[0,0.5],[1,0.5]];portConstraint=eastwest;rotatable=0;whiteSpace=wrap;html=1;" vertex="1" parent="px1rrTBDFM3gFnMYWkGp-1">
          <mxGeometry y="60" width="140" height="30" as="geometry" />
        </mxCell>
        <mxCell id="px1rrTBDFM3gFnMYWkGp-3" value="email" style="text;strokeColor=none;fillColor=none;align=left;verticalAlign=middle;spacingLeft=4;spacingRight=4;overflow=hidden;points=[[0,0.5],[1,0.5]];portConstraint=eastwest;rotatable=0;whiteSpace=wrap;html=1;" vertex="1" parent="px1rrTBDFM3gFnMYWkGp-1">
          <mxGeometry y="90" width="140" height="30" as="geometry" />
        </mxCell>
        <mxCell id="px1rrTBDFM3gFnMYWkGp-4" value="password" style="text;strokeColor=none;fillColor=none;align=left;verticalAlign=middle;spacingLeft=4;spacingRight=4;overflow=hidden;points=[[0,0.5],[1,0.5]];portConstraint=eastwest;rotatable=0;whiteSpace=wrap;html=1;" vertex="1" parent="px1rrTBDFM3gFnMYWkGp-1">
          <mxGeometry y="120" width="140" height="30" as="geometry" />
        </mxCell>
        <mxCell id="q77VqO8hkTTsTpyLaT5r-1" value="phoneNumber" style="text;strokeColor=none;fillColor=none;align=left;verticalAlign=middle;spacingLeft=4;spacingRight=4;overflow=hidden;points=[[0,0.5],[1,0.5]];portConstraint=eastwest;rotatable=0;whiteSpace=wrap;html=1;" vertex="1" parent="px1rrTBDFM3gFnMYWkGp-1">
          <mxGeometry y="150" width="140" height="30" as="geometry" />
        </mxCell>
        <mxCell id="px1rrTBDFM3gFnMYWkGp-5" value="listingsCounter" style="text;strokeColor=none;fillColor=none;align=left;verticalAlign=middle;spacingLeft=4;spacingRight=4;overflow=hidden;points=[[0,0.5],[1,0.5]];portConstraint=eastwest;rotatable=0;whiteSpace=wrap;html=1;" vertex="1" parent="px1rrTBDFM3gFnMYWkGp-1">
          <mxGeometry y="180" width="140" height="30" as="geometry" />
        </mxCell>
        <mxCell id="px1rrTBDFM3gFnMYWkGp-6" value="Vehicle" style="swimlane;fontStyle=0;childLayout=stackLayout;horizontal=1;startSize=26;horizontalStack=0;resizeParent=1;resizeParentMax=0;resizeLast=0;collapsible=1;marginBottom=0;align=center;fontSize=14;" vertex="1" parent="1">
          <mxGeometry x="900" y="234" width="160" height="326" as="geometry" />
        </mxCell>
        <mxCell id="W-0yHrhrwle7xTlJPiri-31" value="vehicle_id" style="text;strokeColor=none;fillColor=none;spacingLeft=4;spacingRight=4;overflow=hidden;rotatable=0;points=[[0,0.5],[1,0.5]];portConstraint=eastwest;fontSize=12;whiteSpace=wrap;html=1;" vertex="1" parent="px1rrTBDFM3gFnMYWkGp-6">
          <mxGeometry y="26" width="160" height="30" as="geometry" />
        </mxCell>
        <mxCell id="YTSqTooO_Jcvt5Z83aY8-2" value="category_id" style="text;strokeColor=none;fillColor=none;spacingLeft=4;spacingRight=4;overflow=hidden;rotatable=0;points=[[0,0.5],[1,0.5]];portConstraint=eastwest;fontSize=12;whiteSpace=wrap;html=1;" vertex="1" parent="px1rrTBDFM3gFnMYWkGp-6">
          <mxGeometry y="56" width="160" height="30" as="geometry" />
        </mxCell>
        <mxCell id="px1rrTBDFM3gFnMYWkGp-23" value="transmission_id" style="text;strokeColor=none;fillColor=none;spacingLeft=4;spacingRight=4;overflow=hidden;rotatable=0;points=[[0,0.5],[1,0.5]];portConstraint=eastwest;fontSize=12;whiteSpace=wrap;html=1;" vertex="1" parent="px1rrTBDFM3gFnMYWkGp-6">
          <mxGeometry y="86" width="160" height="30" as="geometry" />
        </mxCell>
        <mxCell id="W-0yHrhrwle7xTlJPiri-5" value="typeofengine_id" style="text;strokeColor=none;fillColor=none;spacingLeft=4;spacingRight=4;overflow=hidden;rotatable=0;points=[[0,0.5],[1,0.5]];portConstraint=eastwest;fontSize=12;whiteSpace=wrap;html=1;" vertex="1" parent="px1rrTBDFM3gFnMYWkGp-6">
          <mxGeometry y="116" width="160" height="30" as="geometry" />
        </mxCell>
        <mxCell id="W-0yHrhrwle7xTlJPiri-4" value="power" style="text;strokeColor=none;fillColor=none;spacingLeft=4;spacingRight=4;overflow=hidden;rotatable=0;points=[[0,0.5],[1,0.5]];portConstraint=eastwest;fontSize=12;whiteSpace=wrap;html=1;" vertex="1" parent="px1rrTBDFM3gFnMYWkGp-6">
          <mxGeometry y="146" width="160" height="30" as="geometry" />
        </mxCell>
        <mxCell id="W-0yHrhrwle7xTlJPiri-3" value="brand_id" style="text;strokeColor=none;fillColor=none;spacingLeft=4;spacingRight=4;overflow=hidden;rotatable=0;points=[[0,0.5],[1,0.5]];portConstraint=eastwest;fontSize=12;whiteSpace=wrap;html=1;" vertex="1" parent="px1rrTBDFM3gFnMYWkGp-6">
          <mxGeometry y="176" width="160" height="30" as="geometry" />
        </mxCell>
        <mxCell id="wWiMdeqI36fsdlHAcUSC-4" value="model_id" style="text;strokeColor=none;fillColor=none;spacingLeft=4;spacingRight=4;overflow=hidden;rotatable=0;points=[[0,0.5],[1,0.5]];portConstraint=eastwest;fontSize=12;whiteSpace=wrap;html=1;" vertex="1" parent="px1rrTBDFM3gFnMYWkGp-6">
          <mxGeometry y="206" width="160" height="30" as="geometry" />
        </mxCell>
        <mxCell id="W-0yHrhrwle7xTlJPiri-9" value="color" style="text;strokeColor=none;fillColor=none;spacingLeft=4;spacingRight=4;overflow=hidden;rotatable=0;points=[[0,0.5],[1,0.5]];portConstraint=eastwest;fontSize=12;whiteSpace=wrap;html=1;" vertex="1" parent="px1rrTBDFM3gFnMYWkGp-6">
          <mxGeometry y="236" width="160" height="30" as="geometry" />
        </mxCell>
        <mxCell id="Rq4SsP3HgIPZjCUFP3po-17" value="Mileage" style="text;strokeColor=none;fillColor=none;spacingLeft=4;spacingRight=4;overflow=hidden;rotatable=0;points=[[0,0.5],[1,0.5]];portConstraint=eastwest;fontSize=12;whiteSpace=wrap;html=1;" vertex="1" parent="px1rrTBDFM3gFnMYWkGp-6">
          <mxGeometry y="266" width="160" height="30" as="geometry" />
        </mxCell>
        <mxCell id="W-0yHrhrwle7xTlJPiri-29" value="VIN" style="text;strokeColor=none;fillColor=none;spacingLeft=4;spacingRight=4;overflow=hidden;rotatable=0;points=[[0,0.5],[1,0.5]];portConstraint=eastwest;fontSize=12;whiteSpace=wrap;html=1;" vertex="1" parent="px1rrTBDFM3gFnMYWkGp-6">
          <mxGeometry y="296" width="160" height="30" as="geometry" />
        </mxCell>
        <mxCell id="px1rrTBDFM3gFnMYWkGp-24" value="Category" style="swimlane;fontStyle=0;childLayout=stackLayout;horizontal=1;startSize=26;horizontalStack=0;resizeParent=1;resizeParentMax=0;resizeLast=0;collapsible=1;marginBottom=0;align=center;fontSize=14;" vertex="1" parent="1">
          <mxGeometry x="640" y="230" width="160" height="86" as="geometry" />
        </mxCell>
        <mxCell id="px1rrTBDFM3gFnMYWkGp-26" value="category_id" style="text;strokeColor=none;fillColor=none;spacingLeft=4;spacingRight=4;overflow=hidden;rotatable=0;points=[[0,0.5],[1,0.5]];portConstraint=eastwest;fontSize=12;whiteSpace=wrap;html=1;" vertex="1" parent="px1rrTBDFM3gFnMYWkGp-24">
          <mxGeometry y="26" width="160" height="30" as="geometry" />
        </mxCell>
        <mxCell id="px1rrTBDFM3gFnMYWkGp-27" value="categoryName" style="text;strokeColor=none;fillColor=none;spacingLeft=4;spacingRight=4;overflow=hidden;rotatable=0;points=[[0,0.5],[1,0.5]];portConstraint=eastwest;fontSize=12;whiteSpace=wrap;html=1;" vertex="1" parent="px1rrTBDFM3gFnMYWkGp-24">
          <mxGeometry y="56" width="160" height="30" as="geometry" />
        </mxCell>
        <mxCell id="W-0yHrhrwle7xTlJPiri-2" value="" style="edgeStyle=entityRelationEdgeStyle;fontSize=12;html=1;endArrow=ERzeroToMany;startArrow=ERmandOne;rounded=0;" edge="1" parent="1" source="px1rrTBDFM3gFnMYWkGp-10" target="W-0yHrhrwle7xTlJPiri-14">
          <mxGeometry width="100" height="100" relative="1" as="geometry">
            <mxPoint x="370" y="810" as="sourcePoint" />
            <mxPoint x="470" y="710" as="targetPoint" />
          </mxGeometry>
        </mxCell>
        <mxCell id="W-0yHrhrwle7xTlJPiri-12" value="Listing" style="swimlane;fontStyle=0;childLayout=stackLayout;horizontal=1;startSize=26;horizontalStack=0;resizeParent=1;resizeParentMax=0;resizeLast=0;collapsible=1;marginBottom=0;align=center;fontSize=14;" vertex="1" parent="1">
          <mxGeometry x="400" y="387" width="160" height="416" as="geometry" />
        </mxCell>
        <mxCell id="W-0yHrhrwle7xTlJPiri-13" value="listing_id" style="text;strokeColor=none;fillColor=none;spacingLeft=4;spacingRight=4;overflow=hidden;rotatable=0;points=[[0,0.5],[1,0.5]];portConstraint=eastwest;fontSize=12;whiteSpace=wrap;html=1;" vertex="1" parent="W-0yHrhrwle7xTlJPiri-12">
          <mxGeometry y="26" width="160" height="30" as="geometry" />
        </mxCell>
        <mxCell id="W-0yHrhrwle7xTlJPiri-14" value="user_id" style="text;strokeColor=none;fillColor=none;spacingLeft=4;spacingRight=4;overflow=hidden;rotatable=0;points=[[0,0.5],[1,0.5]];portConstraint=eastwest;fontSize=12;whiteSpace=wrap;html=1;" vertex="1" parent="W-0yHrhrwle7xTlJPiri-12">
          <mxGeometry y="56" width="160" height="30" as="geometry" />
        </mxCell>
        <mxCell id="W-0yHrhrwle7xTlJPiri-21" value="category_id" style="text;strokeColor=none;fillColor=none;spacingLeft=4;spacingRight=4;overflow=hidden;rotatable=0;points=[[0,0.5],[1,0.5]];portConstraint=eastwest;fontSize=12;whiteSpace=wrap;html=1;" vertex="1" parent="W-0yHrhrwle7xTlJPiri-12">
          <mxGeometry y="86" width="160" height="30" as="geometry" />
        </mxCell>
        <mxCell id="GE3Wclznd6PfUEdtJZX6-2" value="vehicle_id" style="text;strokeColor=none;fillColor=none;spacingLeft=4;spacingRight=4;overflow=hidden;rotatable=0;points=[[0,0.5],[1,0.5]];portConstraint=eastwest;fontSize=12;whiteSpace=wrap;html=1;" vertex="1" parent="W-0yHrhrwle7xTlJPiri-12">
          <mxGeometry y="116" width="160" height="30" as="geometry" />
        </mxCell>
        <mxCell id="GE3Wclznd6PfUEdtJZX6-3" value="part_id" style="text;strokeColor=none;fillColor=none;spacingLeft=4;spacingRight=4;overflow=hidden;rotatable=0;points=[[0,0.5],[1,0.5]];portConstraint=eastwest;fontSize=12;whiteSpace=wrap;html=1;" vertex="1" parent="W-0yHrhrwle7xTlJPiri-12">
          <mxGeometry y="146" width="160" height="30" as="geometry" />
        </mxCell>
        <mxCell id="W-0yHrhrwle7xTlJPiri-92" value="region_id" style="text;strokeColor=none;fillColor=none;spacingLeft=4;spacingRight=4;overflow=hidden;rotatable=0;points=[[0,0.5],[1,0.5]];portConstraint=eastwest;fontSize=12;whiteSpace=wrap;html=1;" vertex="1" parent="W-0yHrhrwle7xTlJPiri-12">
          <mxGeometry y="176" width="160" height="30" as="geometry" />
        </mxCell>
        <mxCell id="W-0yHrhrwle7xTlJPiri-15" value="title" style="text;strokeColor=none;fillColor=none;spacingLeft=4;spacingRight=4;overflow=hidden;rotatable=0;points=[[0,0.5],[1,0.5]];portConstraint=eastwest;fontSize=12;whiteSpace=wrap;html=1;" vertex="1" parent="W-0yHrhrwle7xTlJPiri-12">
          <mxGeometry y="206" width="160" height="30" as="geometry" />
        </mxCell>
        <mxCell id="W-0yHrhrwle7xTlJPiri-30" value="description" style="text;strokeColor=none;fillColor=none;spacingLeft=4;spacingRight=4;overflow=hidden;rotatable=0;points=[[0,0.5],[1,0.5]];portConstraint=eastwest;fontSize=12;whiteSpace=wrap;html=1;" vertex="1" parent="W-0yHrhrwle7xTlJPiri-12">
          <mxGeometry y="236" width="160" height="30" as="geometry" />
        </mxCell>
        <mxCell id="W-0yHrhrwle7xTlJPiri-16" value="photos" style="text;strokeColor=none;fillColor=none;spacingLeft=4;spacingRight=4;overflow=hidden;rotatable=0;points=[[0,0.5],[1,0.5]];portConstraint=eastwest;fontSize=12;whiteSpace=wrap;html=1;" vertex="1" parent="W-0yHrhrwle7xTlJPiri-12">
          <mxGeometry y="266" width="160" height="30" as="geometry" />
        </mxCell>
        <mxCell id="W-0yHrhrwle7xTlJPiri-17" value="dateTime" style="text;strokeColor=none;fillColor=none;spacingLeft=4;spacingRight=4;overflow=hidden;rotatable=0;points=[[0,0.5],[1,0.5]];portConstraint=eastwest;fontSize=12;whiteSpace=wrap;html=1;" vertex="1" parent="W-0yHrhrwle7xTlJPiri-12">
          <mxGeometry y="296" width="160" height="30" as="geometry" />
        </mxCell>
        <mxCell id="W-0yHrhrwle7xTlJPiri-19" value="price" style="text;strokeColor=none;fillColor=none;spacingLeft=4;spacingRight=4;overflow=hidden;rotatable=0;points=[[0,0.5],[1,0.5]];portConstraint=eastwest;fontSize=12;whiteSpace=wrap;html=1;" vertex="1" parent="W-0yHrhrwle7xTlJPiri-12">
          <mxGeometry y="326" width="160" height="30" as="geometry" />
        </mxCell>
        <mxCell id="W-0yHrhrwle7xTlJPiri-46" value="usageStatus" style="text;strokeColor=none;fillColor=none;spacingLeft=4;spacingRight=4;overflow=hidden;rotatable=0;points=[[0,0.5],[1,0.5]];portConstraint=eastwest;fontSize=12;whiteSpace=wrap;html=1;" vertex="1" parent="W-0yHrhrwle7xTlJPiri-12">
          <mxGeometry y="356" width="160" height="30" as="geometry" />
        </mxCell>
        <mxCell id="Rq4SsP3HgIPZjCUFP3po-19" value="yearOfProduction" style="text;strokeColor=none;fillColor=none;spacingLeft=4;spacingRight=4;overflow=hidden;rotatable=0;points=[[0,0.5],[1,0.5]];portConstraint=eastwest;fontSize=12;whiteSpace=wrap;html=1;" vertex="1" parent="W-0yHrhrwle7xTlJPiri-12">
          <mxGeometry y="386" width="160" height="30" as="geometry" />
        </mxCell>
        <mxCell id="W-0yHrhrwle7xTlJPiri-32" value="" style="edgeStyle=entityRelationEdgeStyle;fontSize=12;html=1;endArrow=ERoneToMany;startArrow=ERmandOne;rounded=0;" edge="1" parent="1" source="px1rrTBDFM3gFnMYWkGp-26" target="W-0yHrhrwle7xTlJPiri-21">
          <mxGeometry width="100" height="100" relative="1" as="geometry">
            <mxPoint x="730" y="690" as="sourcePoint" />
            <mxPoint x="830" y="590" as="targetPoint" />
            <Array as="points">
              <mxPoint x="620" y="620" />
              <mxPoint x="600" y="560" />
              <mxPoint x="620" y="680" />
            </Array>
          </mxGeometry>
        </mxCell>
        <mxCell id="W-0yHrhrwle7xTlJPiri-33" value="" style="edgeStyle=entityRelationEdgeStyle;fontSize=12;html=1;endArrow=ERoneToMany;startArrow=ERmandOne;rounded=0;entryX=0;entryY=0.5;entryDx=0;entryDy=0;" edge="1" parent="1" source="px1rrTBDFM3gFnMYWkGp-26" target="YTSqTooO_Jcvt5Z83aY8-2">
          <mxGeometry width="100" height="100" relative="1" as="geometry">
            <mxPoint x="876" y="627" as="sourcePoint" />
            <mxPoint x="811" y="875" as="targetPoint" />
            <Array as="points">
              <mxPoint x="856" y="784" />
              <mxPoint x="836" y="724" />
              <mxPoint x="856" y="844" />
            </Array>
          </mxGeometry>
        </mxCell>
        <mxCell id="W-0yHrhrwle7xTlJPiri-34" value="Car part" style="swimlane;fontStyle=0;childLayout=stackLayout;horizontal=1;startSize=26;horizontalStack=0;resizeParent=1;resizeParentMax=0;resizeLast=0;collapsible=1;marginBottom=0;align=center;fontSize=14;" vertex="1" parent="1">
          <mxGeometry x="900" y="594" width="160" height="176" as="geometry" />
        </mxCell>
        <mxCell id="W-0yHrhrwle7xTlJPiri-35" value="part_id" style="text;strokeColor=none;fillColor=none;spacingLeft=4;spacingRight=4;overflow=hidden;rotatable=0;points=[[0,0.5],[1,0.5]];portConstraint=eastwest;fontSize=12;whiteSpace=wrap;html=1;" vertex="1" parent="W-0yHrhrwle7xTlJPiri-34">
          <mxGeometry y="26" width="160" height="30" as="geometry" />
        </mxCell>
        <mxCell id="YTSqTooO_Jcvt5Z83aY8-1" value="category_id" style="text;strokeColor=none;fillColor=none;spacingLeft=4;spacingRight=4;overflow=hidden;rotatable=0;points=[[0,0.5],[1,0.5]];portConstraint=eastwest;fontSize=12;whiteSpace=wrap;html=1;" vertex="1" parent="W-0yHrhrwle7xTlJPiri-34">
          <mxGeometry y="56" width="160" height="30" as="geometry" />
        </mxCell>
        <mxCell id="W-0yHrhrwle7xTlJPiri-47" value="brand_id" style="text;strokeColor=none;fillColor=none;spacingLeft=4;spacingRight=4;overflow=hidden;rotatable=0;points=[[0,0.5],[1,0.5]];portConstraint=eastwest;fontSize=12;whiteSpace=wrap;html=1;" vertex="1" parent="W-0yHrhrwle7xTlJPiri-34">
          <mxGeometry y="86" width="160" height="30" as="geometry" />
        </mxCell>
        <mxCell id="wWiMdeqI36fsdlHAcUSC-5" value="model_id" style="text;strokeColor=none;fillColor=none;spacingLeft=4;spacingRight=4;overflow=hidden;rotatable=0;points=[[0,0.5],[1,0.5]];portConstraint=eastwest;fontSize=12;whiteSpace=wrap;html=1;" vertex="1" parent="W-0yHrhrwle7xTlJPiri-34">
          <mxGeometry y="116" width="160" height="30" as="geometry" />
        </mxCell>
        <mxCell id="Rq4SsP3HgIPZjCUFP3po-20" value="partType" style="text;strokeColor=none;fillColor=none;spacingLeft=4;spacingRight=4;overflow=hidden;rotatable=0;points=[[0,0.5],[1,0.5]];portConstraint=eastwest;fontSize=12;whiteSpace=wrap;html=1;" vertex="1" parent="W-0yHrhrwle7xTlJPiri-34">
          <mxGeometry y="146" width="160" height="30" as="geometry" />
        </mxCell>
        <mxCell id="W-0yHrhrwle7xTlJPiri-49" value="" style="edgeStyle=entityRelationEdgeStyle;fontSize=12;html=1;endArrow=ERoneToMany;startArrow=ERmandOne;rounded=0;entryX=0;entryY=0.5;entryDx=0;entryDy=0;exitX=1;exitY=0.5;exitDx=0;exitDy=0;" edge="1" parent="1" source="px1rrTBDFM3gFnMYWkGp-26" target="YTSqTooO_Jcvt5Z83aY8-1">
          <mxGeometry width="100" height="100" relative="1" as="geometry">
            <mxPoint x="801" y="795" as="sourcePoint" />
            <mxPoint x="881" y="589" as="targetPoint" />
            <Array as="points">
              <mxPoint x="816" y="1089" />
              <mxPoint x="820" y="500" />
              <mxPoint x="860" y="660" />
              <mxPoint x="796" y="1029" />
              <mxPoint x="816" y="1149" />
            </Array>
          </mxGeometry>
        </mxCell>
        <mxCell id="W-0yHrhrwle7xTlJPiri-50" value="Brand" style="swimlane;fontStyle=0;childLayout=stackLayout;horizontal=1;startSize=26;horizontalStack=0;resizeParent=1;resizeParentMax=0;resizeLast=0;collapsible=1;marginBottom=0;align=center;fontSize=14;" vertex="1" parent="1">
          <mxGeometry x="1189" y="627" width="160" height="86" as="geometry" />
        </mxCell>
        <mxCell id="W-0yHrhrwle7xTlJPiri-51" value="brand_id" style="text;strokeColor=none;fillColor=none;spacingLeft=4;spacingRight=4;overflow=hidden;rotatable=0;points=[[0,0.5],[1,0.5]];portConstraint=eastwest;fontSize=12;whiteSpace=wrap;html=1;" vertex="1" parent="W-0yHrhrwle7xTlJPiri-50">
          <mxGeometry y="26" width="160" height="30" as="geometry" />
        </mxCell>
        <mxCell id="W-0yHrhrwle7xTlJPiri-52" value="brandName" style="text;strokeColor=none;fillColor=none;spacingLeft=4;spacingRight=4;overflow=hidden;rotatable=0;points=[[0,0.5],[1,0.5]];portConstraint=eastwest;fontSize=12;whiteSpace=wrap;html=1;" vertex="1" parent="W-0yHrhrwle7xTlJPiri-50">
          <mxGeometry y="56" width="160" height="30" as="geometry" />
        </mxCell>
        <mxCell id="W-0yHrhrwle7xTlJPiri-58" value="Model" style="swimlane;fontStyle=0;childLayout=stackLayout;horizontal=1;startSize=26;horizontalStack=0;resizeParent=1;resizeParentMax=0;resizeLast=0;collapsible=1;marginBottom=0;align=center;fontSize=14;" vertex="1" parent="1">
          <mxGeometry x="1189" y="479" width="160" height="116" as="geometry" />
        </mxCell>
        <mxCell id="W-0yHrhrwle7xTlJPiri-59" value="model_id" style="text;strokeColor=none;fillColor=none;spacingLeft=4;spacingRight=4;overflow=hidden;rotatable=0;points=[[0,0.5],[1,0.5]];portConstraint=eastwest;fontSize=12;whiteSpace=wrap;html=1;" vertex="1" parent="W-0yHrhrwle7xTlJPiri-58">
          <mxGeometry y="26" width="160" height="30" as="geometry" />
        </mxCell>
        <mxCell id="wWiMdeqI36fsdlHAcUSC-1" value="brand_id" style="text;strokeColor=none;fillColor=none;spacingLeft=4;spacingRight=4;overflow=hidden;rotatable=0;points=[[0,0.5],[1,0.5]];portConstraint=eastwest;fontSize=12;whiteSpace=wrap;html=1;" vertex="1" parent="W-0yHrhrwle7xTlJPiri-58">
          <mxGeometry y="56" width="160" height="30" as="geometry" />
        </mxCell>
        <mxCell id="W-0yHrhrwle7xTlJPiri-60" value="modelName" style="text;strokeColor=none;fillColor=none;spacingLeft=4;spacingRight=4;overflow=hidden;rotatable=0;points=[[0,0.5],[1,0.5]];portConstraint=eastwest;fontSize=12;whiteSpace=wrap;html=1;" vertex="1" parent="W-0yHrhrwle7xTlJPiri-58">
          <mxGeometry y="86" width="160" height="30" as="geometry" />
        </mxCell>
        <mxCell id="W-0yHrhrwle7xTlJPiri-65" value="" style="edgeStyle=entityRelationEdgeStyle;fontSize=12;html=1;endArrow=ERoneToMany;startArrow=ERmandOne;rounded=0;exitX=0;exitY=0.5;exitDx=0;exitDy=0;" edge="1" parent="1" source="W-0yHrhrwle7xTlJPiri-51" target="W-0yHrhrwle7xTlJPiri-3">
          <mxGeometry width="100" height="100" relative="1" as="geometry">
            <mxPoint x="1150" y="532" as="sourcePoint" />
            <mxPoint x="1170" y="364" as="targetPoint" />
            <Array as="points">
              <mxPoint x="1195" y="826" />
              <mxPoint x="1175" y="766" />
              <mxPoint x="1195" y="886" />
            </Array>
          </mxGeometry>
        </mxCell>
        <mxCell id="W-0yHrhrwle7xTlJPiri-66" value="" style="edgeStyle=entityRelationEdgeStyle;fontSize=12;html=1;endArrow=ERoneToMany;startArrow=ERmandOne;rounded=0;entryX=1;entryY=0.5;entryDx=0;entryDy=0;" edge="1" parent="1" source="W-0yHrhrwle7xTlJPiri-51" target="wWiMdeqI36fsdlHAcUSC-1">
          <mxGeometry width="100" height="100" relative="1" as="geometry">
            <mxPoint x="1290" y="505" as="sourcePoint" />
            <mxPoint x="1439.04" y="497" as="targetPoint" />
            <Array as="points">
              <mxPoint x="1335" y="799" />
              <mxPoint x="1479" y="665" />
              <mxPoint x="1315" y="739" />
              <mxPoint x="1449" y="627" />
              <mxPoint x="1679" y="535" />
              <mxPoint x="1335" y="859" />
              <mxPoint x="1469" y="575" />
            </Array>
          </mxGeometry>
        </mxCell>
        <mxCell id="W-0yHrhrwle7xTlJPiri-79" value="Transmission" style="swimlane;fontStyle=0;childLayout=stackLayout;horizontal=1;startSize=26;horizontalStack=0;resizeParent=1;resizeParentMax=0;resizeLast=0;collapsible=1;marginBottom=0;align=center;fontSize=14;" vertex="1" parent="1">
          <mxGeometry x="1189" y="234" width="160" height="86" as="geometry" />
        </mxCell>
        <mxCell id="wWiMdeqI36fsdlHAcUSC-3" value="transmission_id" style="text;strokeColor=none;fillColor=none;spacingLeft=4;spacingRight=4;overflow=hidden;rotatable=0;points=[[0,0.5],[1,0.5]];portConstraint=eastwest;fontSize=12;whiteSpace=wrap;html=1;" vertex="1" parent="W-0yHrhrwle7xTlJPiri-79">
          <mxGeometry y="26" width="160" height="30" as="geometry" />
        </mxCell>
        <mxCell id="W-0yHrhrwle7xTlJPiri-80" value="transmissionType" style="text;strokeColor=none;fillColor=none;spacingLeft=4;spacingRight=4;overflow=hidden;rotatable=0;points=[[0,0.5],[1,0.5]];portConstraint=eastwest;fontSize=12;whiteSpace=wrap;html=1;" vertex="1" parent="W-0yHrhrwle7xTlJPiri-79">
          <mxGeometry y="56" width="160" height="30" as="geometry" />
        </mxCell>
        <mxCell id="W-0yHrhrwle7xTlJPiri-83" value="" style="edgeStyle=entityRelationEdgeStyle;fontSize=12;html=1;endArrow=ERoneToMany;startArrow=ERmandOne;rounded=0;" edge="1" parent="1" source="W-0yHrhrwle7xTlJPiri-79" target="px1rrTBDFM3gFnMYWkGp-23">
          <mxGeometry width="100" height="100" relative="1" as="geometry">
            <mxPoint x="1169.9999999999995" y="574" as="sourcePoint" />
            <mxPoint x="1230" y="574" as="targetPoint" />
            <Array as="points">
              <mxPoint x="1325" y="1197" />
              <mxPoint x="1305" y="1137" />
              <mxPoint x="1325" y="1257" />
            </Array>
          </mxGeometry>
        </mxCell>
        <mxCell id="W-0yHrhrwle7xTlJPiri-84" value="Type of Engine" style="swimlane;fontStyle=0;childLayout=stackLayout;horizontal=1;startSize=26;horizontalStack=0;resizeParent=1;resizeParentMax=0;resizeLast=0;collapsible=1;marginBottom=0;align=center;fontSize=14;" vertex="1" parent="1">
          <mxGeometry x="1189" y="350" width="160" height="86" as="geometry" />
        </mxCell>
        <mxCell id="wWiMdeqI36fsdlHAcUSC-2" value="typeofengine_id" style="text;strokeColor=none;fillColor=none;spacingLeft=4;spacingRight=4;overflow=hidden;rotatable=0;points=[[0,0.5],[1,0.5]];portConstraint=eastwest;fontSize=12;whiteSpace=wrap;html=1;" vertex="1" parent="W-0yHrhrwle7xTlJPiri-84">
          <mxGeometry y="26" width="160" height="30" as="geometry" />
        </mxCell>
        <mxCell id="W-0yHrhrwle7xTlJPiri-85" value="engineType" style="text;strokeColor=none;fillColor=none;spacingLeft=4;spacingRight=4;overflow=hidden;rotatable=0;points=[[0,0.5],[1,0.5]];portConstraint=eastwest;fontSize=12;whiteSpace=wrap;html=1;" vertex="1" parent="W-0yHrhrwle7xTlJPiri-84">
          <mxGeometry y="56" width="160" height="30" as="geometry" />
        </mxCell>
        <mxCell id="W-0yHrhrwle7xTlJPiri-89" value="" style="edgeStyle=entityRelationEdgeStyle;fontSize=12;html=1;endArrow=ERoneToMany;startArrow=ERmandOne;rounded=0;" edge="1" parent="1" source="W-0yHrhrwle7xTlJPiri-84" target="W-0yHrhrwle7xTlJPiri-5">
          <mxGeometry width="100" height="100" relative="1" as="geometry">
            <mxPoint x="1250" y="684" as="sourcePoint" />
            <mxPoint x="1190" y="684" as="targetPoint" />
            <Array as="points">
              <mxPoint x="1130" y="559" />
              <mxPoint x="1455" y="1486" />
              <mxPoint x="1435" y="1426" />
              <mxPoint x="1455" y="1546" />
            </Array>
          </mxGeometry>
        </mxCell>
        <mxCell id="W-0yHrhrwle7xTlJPiri-93" value="Region" style="swimlane;fontStyle=0;childLayout=stackLayout;horizontal=1;startSize=26;horizontalStack=0;resizeParent=1;resizeParentMax=0;resizeLast=0;collapsible=1;marginBottom=0;align=center;fontSize=14;" vertex="1" parent="1">
          <mxGeometry x="650" y="640" width="160" height="86" as="geometry" />
        </mxCell>
        <mxCell id="W-0yHrhrwle7xTlJPiri-94" value="region_id" style="text;strokeColor=none;fillColor=none;spacingLeft=4;spacingRight=4;overflow=hidden;rotatable=0;points=[[0,0.5],[1,0.5]];portConstraint=eastwest;fontSize=12;whiteSpace=wrap;html=1;" vertex="1" parent="W-0yHrhrwle7xTlJPiri-93">
          <mxGeometry y="26" width="160" height="30" as="geometry" />
        </mxCell>
        <mxCell id="W-0yHrhrwle7xTlJPiri-95" value="regionName" style="text;strokeColor=none;fillColor=none;spacingLeft=4;spacingRight=4;overflow=hidden;rotatable=0;points=[[0,0.5],[1,0.5]];portConstraint=eastwest;fontSize=12;whiteSpace=wrap;html=1;" vertex="1" parent="W-0yHrhrwle7xTlJPiri-93">
          <mxGeometry y="56" width="160" height="30" as="geometry" />
        </mxCell>
        <mxCell id="W-0yHrhrwle7xTlJPiri-96" value="" style="edgeStyle=entityRelationEdgeStyle;fontSize=12;html=1;endArrow=ERoneToMany;startArrow=ERmandOne;rounded=0;" edge="1" parent="1" source="W-0yHrhrwle7xTlJPiri-93" target="W-0yHrhrwle7xTlJPiri-92">
          <mxGeometry width="100" height="100" relative="1" as="geometry">
            <mxPoint x="619" y="473" as="sourcePoint" />
            <mxPoint x="560" y="495" as="targetPoint" />
            <Array as="points">
              <mxPoint x="630" y="630" />
              <mxPoint x="610" y="570" />
              <mxPoint x="630" y="690" />
            </Array>
          </mxGeometry>
        </mxCell>
        <mxCell id="Rq4SsP3HgIPZjCUFP3po-1" value="Ask" style="swimlane;fontStyle=0;childLayout=stackLayout;horizontal=1;startSize=26;horizontalStack=0;resizeParent=1;resizeParentMax=0;resizeLast=0;collapsible=1;marginBottom=0;align=center;fontSize=14;" vertex="1" parent="1">
          <mxGeometry x="400" y="240" width="160" height="116" as="geometry" />
        </mxCell>
        <mxCell id="Rq4SsP3HgIPZjCUFP3po-2" value="user_id" style="text;strokeColor=none;fillColor=none;spacingLeft=4;spacingRight=4;overflow=hidden;rotatable=0;points=[[0,0.5],[1,0.5]];portConstraint=eastwest;fontSize=12;whiteSpace=wrap;html=1;" vertex="1" parent="Rq4SsP3HgIPZjCUFP3po-1">
          <mxGeometry y="26" width="160" height="30" as="geometry" />
        </mxCell>
        <mxCell id="Rq4SsP3HgIPZjCUFP3po-3" value="listing_id" style="text;strokeColor=none;fillColor=none;spacingLeft=4;spacingRight=4;overflow=hidden;rotatable=0;points=[[0,0.5],[1,0.5]];portConstraint=eastwest;fontSize=12;whiteSpace=wrap;html=1;" vertex="1" parent="Rq4SsP3HgIPZjCUFP3po-1">
          <mxGeometry y="56" width="160" height="30" as="geometry" />
        </mxCell>
        <mxCell id="Rq4SsP3HgIPZjCUFP3po-5" value="message" style="text;strokeColor=none;fillColor=none;spacingLeft=4;spacingRight=4;overflow=hidden;rotatable=0;points=[[0,0.5],[1,0.5]];portConstraint=eastwest;fontSize=12;whiteSpace=wrap;html=1;" vertex="1" parent="Rq4SsP3HgIPZjCUFP3po-1">
          <mxGeometry y="86" width="160" height="30" as="geometry" />
        </mxCell>
        <mxCell id="Rq4SsP3HgIPZjCUFP3po-7" value="" style="edgeStyle=entityRelationEdgeStyle;fontSize=12;html=1;endArrow=ERzeroToMany;startArrow=ERmandOne;rounded=0;" edge="1" parent="1" source="px1rrTBDFM3gFnMYWkGp-10" target="Rq4SsP3HgIPZjCUFP3po-2">
          <mxGeometry width="100" height="100" relative="1" as="geometry">
            <mxPoint x="140" y="340" as="sourcePoint" />
            <mxPoint x="240" y="240" as="targetPoint" />
          </mxGeometry>
        </mxCell>
        <mxCell id="Rq4SsP3HgIPZjCUFP3po-8" value="Favorite listing" style="swimlane;fontStyle=0;childLayout=stackLayout;horizontal=1;startSize=26;horizontalStack=0;resizeParent=1;resizeParentMax=0;resizeLast=0;collapsible=1;marginBottom=0;align=center;fontSize=14;" vertex="1" parent="1">
          <mxGeometry x="400" y="840" width="160" height="116" as="geometry" />
        </mxCell>
        <mxCell id="Rq4SsP3HgIPZjCUFP3po-10" value="favlisting_id" style="text;strokeColor=none;fillColor=none;spacingLeft=4;spacingRight=4;overflow=hidden;rotatable=0;points=[[0,0.5],[1,0.5]];portConstraint=eastwest;fontSize=12;whiteSpace=wrap;html=1;" vertex="1" parent="Rq4SsP3HgIPZjCUFP3po-8">
          <mxGeometry y="26" width="160" height="30" as="geometry" />
        </mxCell>
        <mxCell id="Rq4SsP3HgIPZjCUFP3po-9" value="user_id" style="text;strokeColor=none;fillColor=none;spacingLeft=4;spacingRight=4;overflow=hidden;rotatable=0;points=[[0,0.5],[1,0.5]];portConstraint=eastwest;fontSize=12;whiteSpace=wrap;html=1;" vertex="1" parent="Rq4SsP3HgIPZjCUFP3po-8">
          <mxGeometry y="56" width="160" height="30" as="geometry" />
        </mxCell>
        <mxCell id="q77VqO8hkTTsTpyLaT5r-2" value="listing_id" style="text;strokeColor=none;fillColor=none;spacingLeft=4;spacingRight=4;overflow=hidden;rotatable=0;points=[[0,0.5],[1,0.5]];portConstraint=eastwest;fontSize=12;whiteSpace=wrap;html=1;" vertex="1" parent="Rq4SsP3HgIPZjCUFP3po-8">
          <mxGeometry y="86" width="160" height="30" as="geometry" />
        </mxCell>
        <mxCell id="Rq4SsP3HgIPZjCUFP3po-12" value="" style="edgeStyle=entityRelationEdgeStyle;fontSize=12;html=1;endArrow=ERzeroToMany;startArrow=ERmandOne;rounded=0;" edge="1" parent="1" source="px1rrTBDFM3gFnMYWkGp-10" target="Rq4SsP3HgIPZjCUFP3po-9">
          <mxGeometry width="100" height="100" relative="1" as="geometry">
            <mxPoint x="200" y="982" as="sourcePoint" />
            <mxPoint x="260" y="786" as="targetPoint" />
          </mxGeometry>
        </mxCell>
        <mxCell id="Rq4SsP3HgIPZjCUFP3po-13" value="" style="edgeStyle=entityRelationEdgeStyle;fontSize=12;html=1;endArrow=ERzeroToMany;startArrow=ERmandOne;rounded=0;" edge="1" parent="1" source="W-0yHrhrwle7xTlJPiri-13" target="Rq4SsP3HgIPZjCUFP3po-3">
          <mxGeometry width="100" height="100" relative="1" as="geometry">
            <mxPoint x="640" y="340" as="sourcePoint" />
            <mxPoint x="740" y="240" as="targetPoint" />
          </mxGeometry>
        </mxCell>
        <mxCell id="Rq4SsP3HgIPZjCUFP3po-16" value="" style="edgeStyle=entityRelationEdgeStyle;fontSize=12;html=1;endArrow=ERzeroToMany;endFill=1;startArrow=ERzeroToMany;rounded=0;entryX=1;entryY=0.5;entryDx=0;entryDy=0;exitX=1;exitY=0.5;exitDx=0;exitDy=0;" edge="1" parent="1" source="q77VqO8hkTTsTpyLaT5r-2" target="W-0yHrhrwle7xTlJPiri-30">
          <mxGeometry width="100" height="100" relative="1" as="geometry">
            <mxPoint x="690" y="940" as="sourcePoint" />
            <mxPoint x="790" y="840" as="targetPoint" />
          </mxGeometry>
        </mxCell>
        <mxCell id="Rq4SsP3HgIPZjCUFP3po-18" value="" style="edgeStyle=entityRelationEdgeStyle;fontSize=12;html=1;endArrow=ERzeroToMany;endFill=1;startArrow=ERzeroToMany;rounded=0;entryX=0;entryY=0.5;entryDx=0;entryDy=0;" edge="1" parent="1" source="W-0yHrhrwle7xTlJPiri-47" target="W-0yHrhrwle7xTlJPiri-52">
          <mxGeometry width="100" height="100" relative="1" as="geometry">
            <mxPoint x="1199" y="815" as="sourcePoint" />
            <mxPoint x="1159" y="595" as="targetPoint" />
            <Array as="points">
              <mxPoint x="1159" y="595" />
            </Array>
          </mxGeometry>
        </mxCell>
        <mxCell id="wWiMdeqI36fsdlHAcUSC-7" value="" style="edgeStyle=entityRelationEdgeStyle;fontSize=12;html=1;endArrow=ERzeroToMany;startArrow=ERzeroToOne;rounded=0;exitX=0;exitY=0.5;exitDx=0;exitDy=0;entryX=1;entryY=0.5;entryDx=0;entryDy=0;" edge="1" parent="1" source="W-0yHrhrwle7xTlJPiri-59" target="wWiMdeqI36fsdlHAcUSC-4">
          <mxGeometry width="100" height="100" relative="1" as="geometry">
            <mxPoint x="1239" y="530" as="sourcePoint" />
            <mxPoint x="1070" y="735" as="targetPoint" />
          </mxGeometry>
        </mxCell>
        <mxCell id="KJRK78g6WQI36pEAdFuT-1" value="" style="edgeStyle=entityRelationEdgeStyle;fontSize=12;html=1;endArrow=ERzeroToOne;startArrow=ERmandOne;rounded=0;" edge="1" parent="1" source="W-0yHrhrwle7xTlJPiri-31" target="GE3Wclznd6PfUEdtJZX6-2">
          <mxGeometry width="100" height="100" relative="1" as="geometry">
            <mxPoint x="780" y="630" as="sourcePoint" />
            <mxPoint x="880" y="530" as="targetPoint" />
            <Array as="points">
              <mxPoint x="870" y="430" />
              <mxPoint x="790" y="400" />
              <mxPoint x="800" y="400" />
              <mxPoint x="730" y="400" />
              <mxPoint x="770" y="480" />
            </Array>
          </mxGeometry>
        </mxCell>
        <mxCell id="KJRK78g6WQI36pEAdFuT-2" value="" style="edgeStyle=entityRelationEdgeStyle;fontSize=12;html=1;endArrow=ERzeroToOne;startArrow=ERmandOne;rounded=0;" edge="1" parent="1" source="W-0yHrhrwle7xTlJPiri-31" target="GE3Wclznd6PfUEdtJZX6-2">
          <mxGeometry width="100" height="100" relative="1" as="geometry">
            <mxPoint x="900" y="275" as="sourcePoint" />
            <mxPoint x="560" y="518" as="targetPoint" />
            <Array as="points">
              <mxPoint x="870" y="430" />
              <mxPoint x="760" y="460" />
              <mxPoint x="790" y="400" />
              <mxPoint x="800" y="400" />
              <mxPoint x="730" y="400" />
              <mxPoint x="770" y="480" />
            </Array>
          </mxGeometry>
        </mxCell>
        <mxCell id="KJRK78g6WQI36pEAdFuT-3" value="" style="edgeStyle=entityRelationEdgeStyle;fontSize=12;html=1;endArrow=ERzeroToOne;startArrow=ERmandOne;rounded=0;" edge="1" parent="1" source="W-0yHrhrwle7xTlJPiri-31" target="GE3Wclznd6PfUEdtJZX6-2">
          <mxGeometry width="100" height="100" relative="1" as="geometry">
            <mxPoint x="900" y="275" as="sourcePoint" />
            <mxPoint x="560" y="518" as="targetPoint" />
            <Array as="points">
              <mxPoint x="890" y="240" />
              <mxPoint x="770" y="550" />
              <mxPoint x="880" y="370" />
              <mxPoint x="870" y="430" />
              <mxPoint x="760" y="460" />
              <mxPoint x="790" y="400" />
              <mxPoint x="800" y="400" />
              <mxPoint x="730" y="400" />
              <mxPoint x="770" y="480" />
            </Array>
          </mxGeometry>
        </mxCell>
        <mxCell id="KJRK78g6WQI36pEAdFuT-4" value="" style="edgeStyle=entityRelationEdgeStyle;fontSize=12;html=1;endArrow=ERzeroToOne;startArrow=ERmandOne;rounded=0;" edge="1" parent="1" source="W-0yHrhrwle7xTlJPiri-35" target="GE3Wclznd6PfUEdtJZX6-3">
          <mxGeometry width="100" height="100" relative="1" as="geometry">
            <mxPoint x="910" y="285" as="sourcePoint" />
            <mxPoint x="570" y="528" as="targetPoint" />
            <Array as="points">
              <mxPoint x="890" y="380" />
              <mxPoint x="880" y="440" />
              <mxPoint x="770" y="470" />
              <mxPoint x="800" y="410" />
              <mxPoint x="810" y="410" />
              <mxPoint x="740" y="410" />
              <mxPoint x="780" y="490" />
            </Array>
          </mxGeometry>
        </mxCell>
        <mxCell id="FE6_hLKL_jycJtYqkZg3-1" value="" style="edgeStyle=entityRelationEdgeStyle;fontSize=12;html=1;endArrow=ERzeroToMany;endFill=1;startArrow=ERzeroToMany;rounded=0;" edge="1" parent="1" source="wWiMdeqI36fsdlHAcUSC-5" target="W-0yHrhrwle7xTlJPiri-58">
          <mxGeometry width="100" height="100" relative="1" as="geometry">
            <mxPoint x="1070" y="750" as="sourcePoint" />
            <mxPoint x="1190" y="533" as="targetPoint" />
            <Array as="points">
              <mxPoint x="1169" y="650" />
            </Array>
          </mxGeometry>
        </mxCell>
      </root>
    </mxGraphModel>
  </diagram>
</mxfile>
